HIERARCHY
ROOT Hips
{
	OFFSET 0.000000 0.000000 0.000000
	CHANNELS 6 Xposition Yposition Zposition Zrotation Yrotation Xrotation 
	JOINT LHipJoint
	{
		OFFSET 0.000000 0.000000 0.000000
		CHANNELS 3 Zrotation Yrotation Xrotation
		JOINT LeftUpLeg
		{
			OFFSET 1.363060 -1.794630 0.839290
			CHANNELS 3 Zrotation Yrotation Xrotation
			JOINT LeftLeg
			{
				OFFSET 2.448110 -6.726130 0.000000
				CHANNELS 3 Zrotation Yrotation Xrotation
				JOINT LeftFoot
				{
					OFFSET 2.562200 -7.039590 0.000000
					CHANNELS 3 Zrotation Yrotation Xrotation
					JOINT LeftToeBase
					{
						OFFSET 0.157640 -0.433110 2.322550
						CHANNELS 3 Zrotation Yrotation Xrotation
						End Site
						{
							OFFSET 0.000000 0.000000 0.000000
						}
					}
				}
			}
		}
	}
	JOINT RHipJoint
	{
		OFFSET 0.000000 0.000000 0.000000
		CHANNELS 3 Zrotation Yrotation Xrotation
		JOINT RightUpLeg
		{
			OFFSET -1.305520 -1.794630 0.839290
			CHANNELS 3 Zrotation Yrotation Xrotation
			JOINT RightLeg
			{
				OFFSET -2.542530 -6.985550 0.000000
				CHANNELS 3 Zrotation Yrotation Xrotation
				JOINT RightFoot
				{
					OFFSET -2.568260 -7.056230 0.000000
					CHANNELS 3 Zrotation Yrotation Xrotation
					JOINT RightToeBase
					{
						OFFSET -0.164730 -0.452590 2.363150
						CHANNELS 3 Zrotation Yrotation Xrotation
						End Site
						{
							OFFSET 0.000000 0.000000 0.000000
						}
					}
				}
			}
		}
	}
	JOINT LowerBack
	{
		OFFSET 0.000000 0.000000 0.000000
		CHANNELS 3 Zrotation Yrotation Xrotation
		JOINT Spine
		{
			OFFSET 0.028270 2.035590 -0.193380
			CHANNELS 3 Zrotation Yrotation Xrotation
			JOINT Spine1
			{
				OFFSET 0.056720 2.048850 -0.042750
				CHANNELS 3 Zrotation Yrotation Xrotation
				JOINT Neck
				{
					OFFSET 0.000000 0.000000 0.000000
					CHANNELS 3 Zrotation Yrotation Xrotation
					JOINT Neck1
					{
						OFFSET -0.054170 1.746240 0.172020
						CHANNELS 3 Zrotation Yrotation Xrotation
						JOINT Head
						{
							OFFSET 0.104070 1.761360 -0.123970
							CHANNELS 3 Zrotation Yrotation Xrotation
							End Site
							{
								OFFSET 0.000000 0.000000 0.000000
							}
						}
					}
				}
				JOINT LeftShoulder
				{
					OFFSET 0.000000 0.000000 0.000000
					CHANNELS 3 Zrotation Yrotation Xrotation
					JOINT LeftArm
					{
						OFFSET 3.362410 1.200890 -0.311210
						CHANNELS 3 Zrotation Yrotation Xrotation
						JOINT LeftForeArm
						{
							OFFSET 4.983000 -0.000000 -0.000000
							CHANNELS 3 Zrotation Yrotation Xrotation
							JOINT LeftHand
							{
								OFFSET 3.483560 -0.000000 -0.000000
								CHANNELS 3 Zrotation Yrotation Xrotation
								JOINT LeftFingerBase
								{
									OFFSET 0.000000 0.000000 0.000000
									CHANNELS 3 Zrotation Yrotation Xrotation
									JOINT LeftHandIndex1
									{
										OFFSET 0.715260 -0.000000 -0.000000
										CHANNELS 3 Zrotation Yrotation Xrotation
										End Site
										{
											OFFSET 0.000000 0.000000 0.000000
										}
									}
								}
								JOINT LThumb
								{
									OFFSET 0.000000 0.000000 0.000000
									CHANNELS 3 Zrotation Yrotation Xrotation
									End Site
									{
										OFFSET 0.000000 0.000000 0.000000
									}
								}
							}
						}
					}
				}
				JOINT RightShoulder
				{
					OFFSET 0.000000 0.000000 0.000000
					CHANNELS 3 Zrotation Yrotation Xrotation
					JOINT RightArm
					{
						OFFSET -3.136600 1.374050 -0.404650
						CHANNELS 3 Zrotation Yrotation Xrotation
						JOINT RightForeArm
						{
							OFFSET -5.241900 -0.000000 -0.000000
							CHANNELS 3 Zrotation Yrotation Xrotation
							JOINT RightHand
							{
								OFFSET -3.444170 -0.000000 -0.000000
								CHANNELS 3 Zrotation Yrotation Xrotation
								JOINT RightFingerBase
								{
									OFFSET 0.000000 0.000000 0.000000
									CHANNELS 3 Zrotation Yrotation Xrotation
									JOINT RightHandIndex1
									{
										OFFSET -0.622530 -0.000000 -0.000000
										CHANNELS 3 Zrotation Yrotation Xrotation
										End Site
										{
											OFFSET 0.000000 0.000000 0.000000
										}
									}
								}
								JOINT RThumb
								{
									OFFSET 0.000000 0.000000 0.000000
									CHANNELS 3 Zrotation Yrotation Xrotation
									End Site
									{
										OFFSET 0.000000 0.000000 0.000000
									}
								}
							}
						}
					}
				}
			}
		}
	}
}
MOTION
Frames: 7
Frame Time: 0.008333
10.083530 16.882184 -43.512178 -6.551761 -0.891147 9.676776 11.054542 2.914779 1.583176 -18.943655 -12.487940 -46.355685 -0.427985 12.048127 27.270034 -0.036486 4.327179 3.473272 0.450300 -4.305000 -11.936400 -15.888415 -5.866184 -4.231860 44.389512 -5.353821 19.284731 2.922489 1.831966 3.226478 -0.523554 0.598122 -8.588379 -0.101800 2.057500 -5.664700 9.949077 2.396093 1.485959 0.543069 2.677474 -3.522240 -1.302568 1.983085 6.859789 -12.195033 -6.425679 -18.762340 1.877582 -5.617827 7.661066 4.107800 -3.644500 11.998600 -6.346185 -4.939230 -0.153770 -76.699134 5.897730 27.924588 9.647466 -19.914907 -2.883968 -1.333532 -2.775235 2.775021 14.726853 27.203057 8.114200 -7.125000 0.000000 0.000000 -17.643300 60.043100 -6.598800 5.132084 5.867138 1.129806 66.188431 -2.232543 53.303666 -24.083797 32.572232 -8.792153 -0.303574 -0.380845 -12.321241 -19.488888 19.114300 -6.593900 7.125000 0.000000 0.000000 5.933900 -9.537600 4.895700
10.088533 16.873528 -43.443045 -6.458154 -0.438503 9.493369 11.051948 2.910831 1.623182 -19.092632 -12.857540 -46.105014 -0.450835 12.007330 27.164777 -0.022547 4.338276 3.932857 0.411963 -4.115931 -11.403712 -15.873621 -5.864216 -4.288254 44.159089 -6.074405 19.560600 2.915431 1.822253 3.269370 -0.519285 0.713291 -8.337987 -0.123557 2.257918 -6.219407 9.906219 2.283707 1.516401 0.536893 2.540992 -3.561441 -1.370901 1.909824 6.510521 -12.028604 -6.273511 -17.955222 1.903187 -5.551394 7.622099 4.127099 -3.608674 11.746090 -6.361499 -4.858286 -0.170431 -76.570451 6.590708 28.096499 9.657228 -20.020988 -2.895759 -1.313232 -2.803912 2.746908 14.675054 27.324754 8.112788 -7.125000 0.000000 0.000000 -17.830486 60.170244 -6.726363 5.099701 5.800768 1.108360 66.465134 -2.757318 53.202716 -24.048995 32.596280 -8.791620 -0.307423 -0.386875 -12.106686 -19.556985 19.341203 -6.693848 7.125000 0.000000 0.000000 5.907069 -9.285246 4.903231
10.094114 16.865411 -43.373714 -6.351418 -0.000299 9.325489 11.049751 2.906601 1.659898 -19.259683 -13.217648 -45.861533 -0.473433 11.968304 27.063387 -0.007865 4.348766 4.401929 0.376567 -3.941245 -10.911549 -15.857464 -5.862152 -4.346547 43.912063 -6.776010 19.828104 2.907094 1.813456 3.311162 -0.514161 0.824999 -8.084457 -0.145784 2.459313 -6.776959 9.849704 2.172417 1.542810 0.530948 2.403458 -3.587640 -1.429902 1.838056 6.255693 -11.878010 -6.145020 -17.342135 1.929966 -5.491850 7.596589 4.144005 -3.574569 11.554613 -6.375964 -4.793488 -0.182864 -76.451458 7.149060 28.252538 9.665029 -20.108643 -2.906115 -1.296888 -2.829895 2.709457 14.631644 27.447859 8.117709 -7.125000 0.000000 0.000000 -18.002650 60.298498 -6.848573 5.072263 5.747660 1.091255 66.704859 -3.151694 53.090824 -24.014577 32.608405 -8.788635 -0.311081 -0.394141 -11.923978 -19.623207 19.551338 -6.787964 7.125000 0.000000 0.000000 5.880649 -9.049421 4.909120
10.105692 16.862882 -43.302334 -6.108614 0.288260 9.318534 11.051677 2.899454 1.662513 -19.614048 -13.479373 -45.692564 -0.493420 11.947622 27.002071 0.014515 4.352968 4.969317 0.371651 -3.915617 -10.839373 -15.827192 -5.859086 -4.424519 43.492978 -7.280916 20.008913 2.885508 1.814146 3.341547 -0.500187 0.900827 -7.798403 -0.172876 2.670819 -7.363988 9.651654 2.072486 1.527423 0.527392 2.255021 -3.479086 -1.392188 1.781763 6.979604 -11.891520 -6.261908 -18.739919 1.968905 -5.503691 7.710547 4.136108 -3.558303 11.995669 -6.381636 -4.896018 -0.151475 -76.432873 6.312197 28.244084 9.652516 -20.005330 -2.901598 -1.321539 -2.827962 2.575229 14.675162 27.585558 8.188263 -7.125000 0.000000 0.000000 -18.019125 60.438247 -6.915309 5.096071 5.832004 1.119146 66.561361 -2.194661 52.865539 -23.984137 32.496957 -8.760234 -0.312755 -0.414219 -12.071330 -19.670001 19.587707 -6.821646 7.125000 0.000000 0.000000 5.858473 -8.984881 4.897979
10.118526 16.860927 -43.230508 -5.852476 0.543918 9.324964 11.052895 2.893814 1.673162 -19.977459 -13.741261 -45.541057 -0.509895 11.934537 26.959224 0.028053 4.392315 5.521304 0.365906 -3.885516 -10.754678 -15.795614 -5.856093 -4.492277 43.052940 -7.742567 20.177352 2.862095 1.817140 3.369663 -0.487822 0.987274 -7.507572 -0.194399 2.839255 -7.831472 9.437499 1.969968 1.495360 0.526705 2.105593 -3.401553 -1.336865 1.716935 7.511271 -11.937984 -6.324411 -19.766855 2.003222 -5.466426 7.801133 4.146464 -3.529288 12.320743 -6.383515 -4.967772 -0.133027 -76.471382 5.750830 28.186292 9.642982 -19.931160 -2.897067 -1.338824 -2.822615 2.493079 14.726127 27.655437 8.241089 -7.125000 0.000000 0.000000 -17.986923 60.512208 -6.934677 5.110656 5.891709 1.140494 66.421030 -1.475191 52.719468 -23.978480 32.428228 -8.749036 -0.312169 -0.429538 -12.231563 -19.732576 19.630322 -6.863033 7.125000 0.000000 0.000000 5.824275 -8.916245 4.877091
10.137243 16.861657 -43.156598 -5.533906 0.645538 9.394060 11.050799 2.895235 1.721429 -20.383223 -14.003917 -45.471309 -0.509926 11.957022 27.002846 0.000190 4.596209 6.001182 0.356283 -3.834470 -10.611373 -15.757926 -5.853439 -4.512217 42.514807 -8.001704 20.287881 2.830127 1.830926 3.387150 -0.482987 1.123431 -7.194378 -0.189849 2.806044 -7.739264 9.147939 1.855335 1.385218 0.539447 1.951517 -3.469254 -1.199105 1.612153 7.142888 -12.138727 -6.132292 -19.057550 2.015895 -5.199255 7.782296 4.242279 -3.440585 12.102803 -6.367637 -4.895437 -0.175172 -76.777194 6.479283 27.897507 9.647394 -19.993430 -2.892470 -1.321622 -2.801277 2.654741 14.811954 27.407800 8.210911 -7.125000 0.000000 0.000000 -17.726829 60.278159 -6.732271 5.082063 5.836062 1.131209 66.295524 -1.867950 52.944262 -24.088850 32.559495 -8.818380 -0.301002 -0.422580 -12.452106 -19.869034 19.702181 -6.940491 7.125000 0.000000 0.000000 5.733794 -8.828431 4.810564
10.154906 16.862596 -43.083697 -5.298124 0.685046 9.497617 11.054157 2.895156 1.754798 -20.679684 -14.231232 -45.450328 -0.498976 11.998572 27.087807 -0.050117 4.900635 6.476322 0.343194 -3.763500 -10.412299 -15.726767 -5.851410 -4.534330 42.073597 -8.179843 20.379860 2.803149 1.843994 3.398981 -0.476343 1.260516 -6.853512 -0.177525 2.707744 -7.466565 8.945435 1.784775 1.252812 0.544660 1.846952 -3.496545 -1.120765 1.546437 7.042364 -12.267867 -6.006869 -18.822133 2.021042 -5.000926 7.793855 4.301478 -3.370357 12.028117 -6.356988 -4.864680 -0.198222 -77.001654 6.813262 27.589656 9.625201 -19.982555 -2.876236 -1.313902 -2.772807 2.832789 14.870844 27.122881 8.159856 -7.125000 0.000000 0.000000 -17.457222 59.996641 -6.508408 5.068051 5.811178 1.128718 66.195476 -1.936437 53.025462 -24.170795 32.637884 -8.866488 -0.293713 -0.418603 -12.658820 -19.938303 19.721683 -6.974372 7.125000 0.000000 0.000000 5.685978 -8.802309 4.773060
